<svg xmlns="http://www.w3.org/2000/svg" version="1.1" xmlns:xlink="http://www.w3.org/1999/xlink" xmlns:svgjs="http://svgjs.dev/svgjs" viewBox="0 0 1422 800"><defs><filter id="uuunion-blur" x="-100%" y="-100%" width="400%" height="400%" color-interpolation-filters="sRGB">
        <feGaussianBlur in="SourceGraphic" stdDeviation="0 0" result="blur"></feGaussianBlur>
        <feDropShadow stdDeviation="12.307692307692308" in="blur" dx="10" dy="10" flood-color="hsl(225, 80%, 98%)" flood-opacity="0.25" x="0%" y="0%" width="100%" height="100%"></feDropShadow>
      </filter><filter id="uuunion-blur2" x="-100%" y="-100%" width="400%" height="400%" color-interpolation-filters="sRGB">
        <feGaussianBlur in="SourceGraphic" stdDeviation="0 0" result="blur"></feGaussianBlur>
        <feDropShadow stdDeviation="12.307692307692308" in="blur" dx="-10" dy="-10" flood-color="hsl(225, 80%, 98%)" flood-opacity="0.25" x="0%" y="0%" width="100%" height="100%"></feDropShadow>
      </filter><linearGradient gradientTransform="rotate(0, 0.5, 0.5)" x1="50%" y1="0%" x2="50%" y2="100%" id="uuunion-grad"><stop stop-color="hsl(20, 91%, 64%)" offset="10%"></stop><stop stop-color="hsl(225, 80%, 98%)" offset="90%"></stop></linearGradient><linearGradient gradientTransform="rotate(135, 0.5, 0.5)" x1="50%" y1="0%" x2="50%" y2="100%" id="uuunion-grad2"><stop stop-color="hsl(20, 91%, 64%)" offset="25%"></stop><stop stop-color="hsl(225, 80%, 98%)" offset="100%"></stop></linearGradient><linearGradient gradientTransform="rotate(333, 0.5, 0.5)" x1="50%" y1="0%" x2="50%" y2="100%" id="uuunion-grad3"><stop stop-color="hsl(20, 91%, 64%)" offset="0%"></stop><stop stop-color="hsl(225, 80%, 98%)" offset="75%"></stop></linearGradient></defs><path d="M-135.61 -87.82Q-122.5 -86.33 -109.39 -84.48 -96.28 -82.38 -83.17 -80.15 -70.06 -77.9 -56.95 -75.78 -43.84 -73.89 -30.73 -72.34 -17.62 -71.23 -4.51 -70.61 8.59 -70.53 21.7 -70.97 34.81 -71.92 47.92 -73.33 61.03 -75.12 74.14 -77.18 87.25 -79.4 100.36 -81.65 113.47 -83.81 126.58 -85.75 139.69 -87.37 152.8 -88.58 165.91 -89.3 179.02 -89.49 192.13 -89.15 205.23 -88.29 218.34 -86.97 231.45 -85.25 244.56 -83.23 257.67 -81.04 270.78 -78.78 283.89 -76.59 297 -74.6 310.11 -72.91 323.22 -71.61 336.33 -70.8 349.44 -70.5 362.55 -70.73 375.66 -71.49 388.77 -72.73 401.88 -74.38 414.99 -76.34 428.1 -78.51 441.21 -80.77 454.32 -82.98 467.43 -85.02 480.54 -86.78 493.65 -88.16 506.76 -89.07 519.87 -89.48 532.98 -89.35 546.09 -88.69 559.2 -87.54 572.31 -85.97 585.42 -84.06 598.53 -81.92 611.64 -79.67 624.75 -77.44 637.86 -75.35 650.97 -73.53 664.08 -72.07 677.19 -71.06 690.3 -70.55 703.41 -70.58 716.52 -71.13 729.63 -72.19 742.73 -73.68 755.84 -75.54 768.95 -77.64 782.06 -79.88 795.17 -82.12 808.28 -84.24 821.39 -86.13 834.5 -87.67 847.61 -88.77 860.72 -89.38 873.83 -89.46 886.94 -89.01 900.05 -88.05 913.16 -86.63 926.27 -84.84 939.38 -82.78 952.49 -80.56 965.6 -78.3 978.71 -76.15 991.82 -74.21 1004.93 -72.59 1018.04 -71.4 1031.15 -70.69 1044.26 -70.5 1057.37 -70.85 1070.48 -71.72 1083.59 -73.05 1096.7 -74.77 1109.81 -76.79 1122.92 -78.99 1136.03 -81.25 1149.14 -83.43 1162.25 -85.42 1175.36 -87.11 1188.47 -88.39 1201.58 -89.2 1214.69 -89.49 1227.8 -89.25 1240.91 -88.48 1254.02 -87.24 1267.13 -85.58 1280.24 -83.62 1293.35 -81.44 1306.46 -79.19 1319.57 -76.98 1332.68 -74.94 1345.79 -73.18 1358.9 -71.81 1372.01 -70.91 1385.12 -70.51 1398.23 -70.65 1411.34 -71.32 1424.45 -72.47 1437.56 -74.05 1450.66 -75.97 1463.77 -78.11 1476.88 -80.36 1489.99 -82.59 1503.1 -84.67 1516.21 -86.49 1529.32 -87.94 1542.43 -88.94 1544.71 -74.03 1548.05 -59.12 1552.27 -44.21 1557.15 -29.3 1562.41 -14.39 1567.76 0.52 1572.93 15.43 1577.61 30.34 1581.56 45.25 1584.57 60.16 1586.45 75.07 1587.13 89.99 1586.54 104.9 1584.74 119.81 1581.81 134.72 1577.92 149.63 1573.28 164.54 1568.14 179.46 1562.78 194.37 1557.51 209.28 1552.6 224.19 1548.32 239.1 1544.91 254.01 1542.56 268.93 1541.39 283.84 1541.46 298.75 1542.78 313.66 1545.27 328.57 1548.8 343.48 1553.16 358.4 1558.13 373.31 1563.43 388.22 1568.78 403.13 1573.87 418.04 1578.43 432.95 1582.22 447.87 1585.02 462.78 1586.68 477.69 1587.11 492.6 1586.29 507.51 1584.26 522.42 1581.13 537.34 1577.08 552.25 1572.32 567.16 1567.12 582.07 1561.76 596.98 1556.53 611.9 1551.72 626.81 1547.59 641.72 1544.37 656.63 1542.24 671.54 1541.3 686.45 1541.62 701.37 1543.17 716.28 1545.87 731.19 1549.57 746.1 1554.08 761.01 1559.13 775.92 1564.46 790.84 1569.78 805.75 1574.79 820.66 1579.23 835.57 1582.84 850.48 1585.43 865.39 1571.88 867.03 1558.33 869.4 1544.79 872.37 1531.24 875.77 1517.69 879.4 1504.15 883.07 1490.6 886.57 1477.05 889.69 1463.5 892.27 1449.96 894.16 1436.41 895.24 1422.86 895.47 1409.31 894.82 1395.77 893.34 1382.22 891.11 1368.67 888.25 1355.13 884.92 1341.58 881.31 1328.03 877.63 1314.48 874.09 1300.94 870.88 1287.39 868.18 1273.84 866.15 1260.29 864.89 1246.75 864.5 1233.2 864.97 1219.65 866.29 1206.11 868.39 1192.56 871.14 1179.01 874.39 1165.46 877.95 1151.92 881.64 1138.37 885.22 1124.82 888.52 1111.27 891.33 1097.73 893.5 1084.18 894.91 1070.63 895.48 1057.09 895.18 1043.54 894.02 1029.99 892.07 1016.44 889.44 1002.9 886.27 989.35 882.75 975.8 879.08 962.26 875.45 948.71 872.09 935.16 869.17 921.61 866.86 908.07 865.29 894.52 864.55 880.97 864.68 867.42 865.68 853.88 867.48 840.33 869.99 826.78 873.06 813.24 876.53 799.69 880.19 786.14 883.84 772.59 887.27 759.05 890.29 745.5 892.73 731.95 894.46 718.41 895.36 704.86 895.4 691.31 894.58 677.76 892.93 664.22 890.55 650.67 887.57 637.12 884.17 623.58 880.53 610.03 876.86 596.48 873.37 582.93 870.25 569.39 867.68 555.84 865.81 542.29 864.74 528.74 864.52 515.2 865.18 501.65 866.68 488.1 868.92 474.56 871.79 461.01 875.13 447.46 878.74 433.91 882.41 420.37 885.96 406.82 889.16 393.27 891.85 379.73 893.87 366.18 895.11 352.63 895.49 339.08 895 325.54 893.67 311.99 891.56 298.44 888.8 284.9 885.55 271.35 881.98 257.8 878.3 244.25 874.71 230.71 871.42 217.16 868.62 203.61 866.46 190.07 865.06 176.52 864.5 162.97 864.82 149.42 865.99 135.88 867.96 122.33 870.6 108.78 873.77 95.24 877.29 81.69 880.97 68.14 884.59 54.59 887.95 41.05 890.86 27.5 893.16 13.95 894.72 0.41 895.45 -13.13 895.3 -26.68 894.29 -40.23 892.48 -53.77 889.96 -67.32 886.88 -80.87 883.41 -94.41 879.75 -107.96 876.1 -121.51 872.67 -135.06 869.66 -148.6 867.22 -147.82 852.3 -146.73 837.38 -145.39 822.46 -143.87 807.53 -142.27 792.61 -140.65 777.69 -139.13 762.76 -137.77 747.84 -136.65 732.92 -135.83 718 -135.36 703.07 -135.27 688.15 -135.55 673.23 -136.19 658.31 -137.17 643.38 -138.41 628.46 -139.87 613.54 -141.45 598.61 -143.07 583.69 -144.64 568.77 -146.08 553.85 -147.3 538.92 -148.25 524 -148.86 509.08 -149.11 494.16 -148.98 479.23 -148.48 464.31 -147.63 449.39 -146.49 434.46 -145.11 419.54 -143.57 404.62 -141.96 389.7 -140.35 374.77 -138.85 359.85 -137.53 344.93 -136.47 330 -135.71 315.08 -135.31 300.16 -135.29 285.24 -135.64 270.31 -136.36 255.39 -137.39 240.47 -138.68 225.55 -140.16 210.62 -141.76 195.7 -143.38 180.78 -144.93 165.85 -146.33 150.93 -147.51 136.01 -148.39 121.09 -148.94 106.16 -149.12 91.24 -148.91 76.32 -148.34 61.4 -147.43 46.47 -146.24 31.55 -144.82 16.63 -143.26 1.7 -141.64 -13.21 -140.05 -28.13 -138.58 -43.05 -137.3 -57.98 -136.3 -72.9 -135.61 -87.82" fill="url(#uuunion-grad)"></path><path d="M-135.62 -87.82Q-136.3 -72.9 -137.31 -57.98 -138.59 -43.06 -140.06 -28.13 -141.65 -13.21 -143.27 1.7 -144.83 16.63 -146.25 31.55 -147.44 46.47 -148.35 61.39 -148.92 76.32 -149.13 91.24 -148.95 106.16 -148.4 121.09 -147.52 136.01 -146.34 150.93 -144.94 165.85 -143.39 180.78 -141.77 195.7 -140.17 210.62 -138.69 225.54 -137.4 240.47 -136.37 255.39 -135.65 270.31 -135.3 285.24 -135.32 300.16 -135.72 315.08 -136.48 330 -137.54 344.93 -138.86 359.85 -140.36 374.77 -141.97 389.69 -133.08 390.94 -124.2 392.42 -115.32 394.09 -106.44 395.9 -97.55 397.82 -88.67 399.79 -79.79 401.77 -70.91 403.7 -62.02 405.54 -53.14 407.24 -44.26 408.76 -35.38 410.06 -26.49 411.1 -17.61 411.87 -0.82 412.45 2.13 412.49 13.42 409.01 24.7 405.06 35.95 400.67 47.18 395.9 58.39 390.8 69.59 385.45 80.76 379.95 91.91 374.38 103.04 368.85 114.15 363.44 125.24 358.25 136.32 353.35 147.37 348.81 158.41 344.69 169.43 341.02 180.43 337.83 191.42 335.12 202.39 332.86 213.36 331.02 224.3 329.56 235.24 328.4 246.17 327.46 257.09 326.67 268 325.93 278.91 325.14 289.81 324.22 300.7 323.07 311.6 321.63 322.49 319.83 333.39 317.61 344.28 314.95 355.18 311.82 366.09 308.23 377 304.2 387.91 299.76 398.84 294.97 409.78 289.9 420.73 284.61 431.69 279.2 442.66 273.76 453.65 268.37 464.66 263.13 475.68 258.11 486.72 253.39 497.78 249.03 508.86 245.08 519.96 241.57 531.09 238.52 542.23 235.91 553.4 233.72 564.58 231.93 575.8 230.47 587.03 229.27 598.29 228.28 609.57 227.39 620.88 226.52 632.2 225.58 643.55 224.49 654.93 223.17 666.33 221.55 677.74 219.57 689.18 217.19 700.64 214.38 712.12 211.12 723.62 207.44 735.13 203.34 746.67 198.87 758.21 194.08 769.77 189.04 781.35 183.83 792.93 178.52 804.53 173.21 816.13 167.97 827.74 162.89 839.36 158.05 850.98 153.51 862.6 149.32 874.22 145.53 885.84 142.17 897.45 139.23 909.06 136.71 920.66 134.58 932.25 132.81 943.83 131.34 955.4 130.1 966.95 129.03 978.49 128.03 990 127.03 1001.5 125.94 1012.97 124.69 1024.41 123.19 1035.83 121.4 1047.23 119.25 1058.59 116.71 1069.92 113.76 1081.22 110.4 1092.49 106.63 1103.71 102.48 1114.91 97.99 1126.06 93.23 1137.18 88.24 1148.26 83.11 1159.29 77.91 1170.29 72.73 1181.24 67.65 1192.15 62.73 1203.01 58.06 1213.84 53.69 1224.62 49.67 1235.36 46.03 1246.05 42.79 1256.7 39.96 1267.31 37.51 1277.87 35.43 1288.4 33.67 1298.88 32.18 1309.33 30.88 1319.74 29.72 1330.1 28.61 1340.44 27.47 1350.73 26.23 1361 24.81 1371.23 23.14 1381.44 21.18 1391.61 18.87 1401.76 16.19 1411.89 13.12 1422 9.66 1416.47 -7.94 1411.36 -25.54 1407.04 -43.15 1403.83 -60.75 1401.97 -78.36 1401.6 -95.97 1402.75 -113.57 1405.32 -131.18 1393.18 -130.88 1381.04 -131.02 1368.91 -131.59 1356.77 -132.56 1344.63 -133.9 1332.5 -135.53 1320.36 -137.37 1308.22 -139.34 1296.09 -141.34 1283.95 -143.28 1271.81 -145.05 1259.68 -146.59 1247.54 -147.81 1235.4 -148.65 1223.27 -149.07 1211.13 -149.06 1198.99 -148.61 1186.86 -147.75 1174.72 -146.51 1162.58 -144.96 1150.45 -143.17 1138.31 -141.23 1126.17 -139.23 1114.04 -137.26 1101.9 -135.43 1089.76 -133.82 1077.63 -132.5 1065.49 -131.55 1053.35 -131 1041.22 -130.88 1029.08 -131.21 1016.94 -131.95 1004.81 -133.09 992.67 -134.56 980.53 -136.28 968.4 -138.19 956.26 -140.19 944.12 -142.17 931.99 -144.05 919.85 -145.74 907.71 -147.15 895.58 -148.21 883.44 -148.88 871.3 -149.12 859.17 -148.92 847.03 -148.29 834.89 -147.27 822.76 -145.89 810.62 -144.23 798.48 -142.36 786.35 -140.38 774.21 -138.39 762.07 -136.47 749.94 -134.71 737.8 -133.22 725.66 -132.05 713.53 -131.26 701.39 -130.9 689.25 -130.97 677.11 -131.47 664.98 -132.39 652.84 -133.67 640.7 -135.26 628.57 -137.07 616.43 -139.03 604.29 -141.03 592.16 -142.98 580.02 -144.79 567.88 -146.37 555.75 -147.64 543.61 -148.54 531.47 -149.03 519.34 -149.09 507.2 -148.71 495.06 -147.91 482.93 -146.72 470.79 -145.22 458.65 -143.46 446.52 -141.53 434.38 -139.54 422.24 -137.56 410.11 -135.7 397.97 -134.05 385.83 -132.68 373.7 -131.67 361.56 -131.05 349.42 -130.87 337.29 -131.13 325.15 -131.81 313.01 -132.89 300.88 -134.31 288.74 -136 276.6 -137.89 264.47 -139.88 252.33 -141.87 240.19 -143.77 228.06 -145.49 215.92 -146.95 203.78 -148.07 191.65 -148.8 179.51 -149.11 167.37 -148.98 155.24 -148.42 143.1 -147.45 130.96 -146.12 118.83 -144.5 106.69 -142.66 94.55 -140.69 82.42 -138.69 70.28 -136.75 58.14 -134.97 46.01 -133.43 33.87 -132.21 21.73 -131.36 9.6 -130.92 -2.53 -130.93 -14.67 -131.37 -26.81 -132.22 -38.94 -133.45 -51.08 -135 -63.22 -136.78 -75.35 -138.72 -87.49 -140.72 -99.63 -142.69 -111.76 -144.53 -123.9 -146.14 -140.25 -140.39 -141.14 -118.18 -138.19 -103.02 -135.62 -87.82" fill="url(#uuunion-grad2)" filter="url(#uuunion-blur)"></path><path d="M1402.39 331.59Q1411.13 330.96 1419.87 330.05 1428.61 328.89 1437.35 327.5 1446.08 325.93 1454.82 324.2 1463.56 322.38 1472.3 320.49 1481.04 318.59 1489.78 316.72 1498.51 314.94 1507.25 313.28 1515.99 311.79 1524.73 310.51 1533.47 309.47 1542.21 308.69 1544.78 326.09 1548.8 343.48 1553.96 360.88 1559.88 378.28 1566.12 395.68 1572.22 413.07 1577.72 430.47 1582.22 447.87 1585.38 465.26 1586.96 482.66 1586.86 500.06 1585.06 517.45 1581.72 534.85 1577.08 552.25 1571.48 569.65 1565.34 587.04 1559.11 604.44 1553.26 621.84 1548.22 639.23 1544.37 656.63 1542 674.03 1541.27 691.42 1542.24 708.82 1544.85 726.22 1548.9 743.61 1554.08 761.01 1560.01 778.41 1566.25 795.81 1572.34 813.2 1577.83 830.6 1582.3 848 1585.43 865.39 1573 866.87 1560.58 868.96 1548.15 871.58 1535.72 874.6 1523.3 877.88 1510.87 881.26 1498.44 884.57 1486.02 887.67 1473.59 890.41 1461.17 892.65 1448.74 894.29 1436.31 895.25 1423.89 895.48 1411.46 894.98 1399.03 893.77 1386.61 891.91 1374.18 889.47 1361.76 886.59 1349.33 883.4 1336.9 880.04 1324.48 876.68 1312.05 873.48 1299.62 870.59 1287.2 868.14 1274.77 866.26 1262.35 865.03 1249.92 864.51 1237.49 864.73 1225.07 865.67 1212.64 867.29 1200.21 869.51 1187.79 872.24 1175.36 875.33 1162.94 878.64 1150.51 882.02 1138.08 885.3 1125.66 888.33 1113.23 890.96 1100.8 893.07 1088.38 894.56 1075.95 895.36 1063.53 895.43 1051.1 894.77 1038.67 893.41 1026.25 891.4 1013.82 888.86 1001.39 885.89 988.97 882.65 976.54 879.28 964.11 875.94 951.69 872.8 939.26 869.99 926.84 867.67 914.41 865.92 901.98 864.85 889.56 864.5 877.13 864.88 864.7 865.98 852.28 867.74 839.85 870.09 827.43 872.91 815 876.06 802.57 879.4 790.15 882.77 777.72 886.01 765.29 888.96 752.87 891.49 740.44 893.47 728.02 894.81 715.59 895.44 703.16 895.35 690.74 894.52 678.31 893.01 665.88 890.87 653.46 888.22 641.03 885.18 628.61 881.9 616.18 878.52 603.75 875.21 591.33 872.13 578.9 869.42 566.47 867.22 554.05 865.62 541.62 864.71 529.2 864.52 516.77 865.06 504.34 866.32 491.92 868.22 479.49 870.69 467.06 873.59 454.64 876.8 442.21 880.16 429.78 883.52 417.36 886.7 404.93 889.57 392.51 891.98 380.08 893.83 367.65 895.01 355.23 895.49 342.8 895.22 330.37 894.24 317.95 892.58 305.52 890.32 293.1 887.57 280.67 884.46 268.24 881.14 255.82 877.76 243.39 874.49 230.96 871.48 218.54 868.88 206.11 866.8 193.69 865.35 181.26 864.6 168.83 864.58 156.41 865.29 143.98 866.69 131.55 868.73 119.13 871.31 106.7 874.29 94.28 877.55 81.85 880.93 69.42 884.26 57 887.38 44.57 890.16 32.14 892.45 19.72 894.16 1.23 890.31 -4.41 875.37 -3.92 865.31 -3.36 855.24 -2.74 845.18 -2.08 835.12 -0.8 820.02 0.29 815 13.18 808.33 26.03 800.95 38.83 792.91 51.57 784.3 64.26 775.25 76.89 765.88 89.48 756.37 102.01 746.86 114.5 737.53 126.94 728.52 139.35 719.97 151.71 711.99 164.05 704.67 176.36 698.04 188.66 692.14 200.94 686.93 213.21 682.36 225.48 678.34 237.76 674.77 250.06 671.5 262.37 668.39 274.7 665.28 287.06 662.01 299.46 658.45 311.89 654.45 324.36 649.9 336.87 644.73 349.43 638.89 362.04 632.36 374.69 625.16 387.38 617.33 400.12 608.97 412.9 600.17 425.72 591.07 438.58 581.81 451.46 572.54 464.37 563.4 477.29 554.55 490.23 546.11 503.18 538.18 516.12 530.84 529.05 524.15 541.97 518.12 554.86 512.74 567.73 507.97 580.55 503.71 593.32 499.88 606.05 496.35 618.71 492.99 631.31 489.64 643.84 486.17 656.29 482.44 668.67 478.33 680.96 473.73 693.17 468.56 705.31 462.78 717.35 456.36 729.32 449.32 741.22 441.7 753.03 433.57 764.78 425.03 776.47 416.19 788.1 407.18 799.68 398.14 809.2 394.79 818.72 391.56 828.23 388.51 837.73 385.69 847.23 383.15 856.72 380.93 866.21 379.07 875.69 377.56 885.16 376.44 894.63 375.68 904.1 375.27 913.55 375.2 923.01 375.41 932.45 375.88 941.9 376.54 951.33 377.34 960.77 378.22 970.2 379.11 979.62 379.95 989.04 380.67 998.46 381.23 1007.87 381.55 1017.28 381.6 1026.68 381.34 1036.08 380.74 1045.48 379.78 1054.88 378.44 1064.27 376.74 1073.66 374.69 1083.05 372.31 1092.44 369.64 1101.82 366.72 1111.2 363.6 1120.58 360.33 1129.96 356.98 1139.34 353.62 1148.72 350.29 1158.09 347.07 1167.47 344.02 1176.85 341.19 1186.22 338.62 1195.6 336.36 1204.97 334.44 1214.35 332.87 1223.73 331.66 1233.11 330.82 1242.49 330.33 1251.87 330.16 1261.25 330.29 1270.64 330.67 1280.03 331.25 1289.42 331.98 1298.81 332.8 1308.21 333.65 1317.61 334.45 1327.01 335.16 1336.42 335.71 1345.83 336.05 1355.25 336.13 1364.66 335.91 1374.09 335.36 1383.52 334.47 1392.95 333.21 1402.39 331.59" fill="url(#uuunion-grad3)" filter="url(#uuunion-blur2)"></path></svg>